<svg xmlns="http://www.w3.org/2000/svg" xmlns:xlink="http://www.w3.org/1999/xlink" width="225" zoomAndPan="magnify" viewBox="0 0 168.75 30.000001" height="40" preserveAspectRatio="xMidYMid meet" version="1.0"><defs><g/><clipPath id="da9ed9fa12"><path d="M 3.472656 1.214844 L 26.007812 1.214844 L 26.007812 28.160156 L 3.472656 28.160156 Z M 3.472656 1.214844 " clip-rule="nonzero"/></clipPath><clipPath id="6d01dc14b3"><path d="M 2.601562 0.34375 L 26.550781 0.34375 L 26.550781 29.023438 L 2.601562 29.023438 Z M 2.601562 0.34375 " clip-rule="nonzero"/></clipPath><clipPath id="84a902954a"><path d="M 30 5 L 39 5 L 39 29 L 30 29 Z M 30 5 " clip-rule="nonzero"/></clipPath><clipPath id="12f5d48470"><path d="M 37.316406 29.078125 L 26.441406 28.597656 L 27.6875 0.320312 L 38.5625 0.796875 Z M 37.316406 29.078125 " clip-rule="nonzero"/></clipPath><clipPath id="6494da2aa0"><path d="M 37.316406 29.078125 L 26.441406 28.597656 L 27.6875 0.320312 L 38.5625 0.796875 Z M 37.316406 29.078125 " clip-rule="nonzero"/></clipPath><clipPath id="5366cdbb0d"><path d="M 29 0 L 36 0 L 36 13 L 29 13 Z M 29 0 " clip-rule="nonzero"/></clipPath><clipPath id="f9148c3dbe"><path d="M 37.316406 29.078125 L 26.441406 28.597656 L 27.6875 0.320312 L 38.5625 0.796875 Z M 37.316406 29.078125 " clip-rule="nonzero"/></clipPath><clipPath id="8fd755a514"><path d="M 37.316406 29.078125 L 26.441406 28.597656 L 27.6875 0.320312 L 38.5625 0.796875 Z M 37.316406 29.078125 " clip-rule="nonzero"/></clipPath><clipPath id="7d9b4cb358"><path d="M 27 6 L 36 6 L 36 15 L 27 15 Z M 27 6 " clip-rule="nonzero"/></clipPath><clipPath id="dd3f1892d2"><path d="M 37.316406 29.078125 L 26.441406 28.597656 L 27.6875 0.320312 L 38.5625 0.796875 Z M 37.316406 29.078125 " clip-rule="nonzero"/></clipPath><clipPath id="7ecf40514c"><path d="M 37.316406 29.078125 L 26.441406 28.597656 L 27.6875 0.320312 L 38.5625 0.796875 Z M 37.316406 29.078125 " clip-rule="nonzero"/></clipPath><clipPath id="e5536e83b1"><path d="M 31 14 L 33 14 L 33 20 L 31 20 Z M 31 14 " clip-rule="nonzero"/></clipPath><clipPath id="692e568382"><path d="M 37.316406 29.078125 L 26.441406 28.597656 L 27.6875 0.320312 L 38.5625 0.796875 Z M 37.316406 29.078125 " clip-rule="nonzero"/></clipPath><clipPath id="e567197cab"><path d="M 37.316406 29.078125 L 26.441406 28.597656 L 27.6875 0.320312 L 38.5625 0.796875 Z M 37.316406 29.078125 " clip-rule="nonzero"/></clipPath><clipPath id="b4c8208aa7"><path d="M 67.675781 15.019531 L 70.582031 15.019531 L 70.582031 17.921875 L 67.675781 17.921875 Z M 67.675781 15.019531 " clip-rule="nonzero"/></clipPath><clipPath id="49780c3bb0"><path d="M 78.5625 15.019531 L 81.46875 15.019531 L 81.46875 17.921875 L 78.5625 17.921875 Z M 78.5625 15.019531 " clip-rule="nonzero"/></clipPath><clipPath id="c551413c54"><path d="M 60.414062 15.019531 L 63 15.019531 L 63 17.921875 L 60.414062 17.921875 Z M 60.414062 15.019531 " clip-rule="nonzero"/></clipPath><clipPath id="0504a99ee2"><path d="M 49.886719 15.019531 L 52.789062 15.019531 L 52.789062 17.921875 L 49.886719 17.921875 Z M 49.886719 15.019531 " clip-rule="nonzero"/></clipPath></defs><g clip-path="url(#da9ed9fa12)"><path fill="#000000" d="M 4.613281 0.351562 C 11.25 0.351562 17.886719 0.351562 24.523438 0.351562 L 26.53125 0.351562 L 26.53125 29.386719 L 2.605469 29.386719 L 2.605469 0.351562 Z M 4.613281 0.738281 C 11.25 0.738281 17.886719 0.738281 24.523438 0.738281 L 26.152344 0.738281 L 26.152344 29 L 2.984375 29 L 2.984375 0.738281 L 4.613281 0.738281 " fill-opacity="1" fill-rule="evenodd"/></g><path fill="#000000" d="M 4.425781 11.203125 L 4.425781 2.214844 C 11.1875 2.214844 17.949219 2.214844 24.710938 2.214844 L 24.710938 27.519531 C 17.949219 27.519531 11.1875 27.519531 4.425781 27.519531 L 4.425781 11.203125 " fill-opacity="1" fill-rule="evenodd"/><path fill="#c6dadb" d="M 17.6875 27.125 L 14.125 16.355469 L 14.066406 27.125 C 15.273438 27.125 16.480469 27.125 17.6875 27.125 " fill-opacity="1" fill-rule="evenodd"/><path fill="#fa9397" d="M 11.082031 27.125 C 11.976562 27.125 12.867188 27.125 13.757812 27.125 L 13.808594 17.53125 L 11.082031 27.125 " fill-opacity="1" fill-rule="evenodd"/><path fill="#95c4be" d="M 10.761719 27.125 L 13.425781 17.742188 L 8.957031 27.125 C 9.558594 27.125 10.160156 27.125 10.761719 27.125 " fill-opacity="1" fill-rule="evenodd"/><path fill="#ffd0a6" d="M 8.613281 27.125 L 13.429688 17.007812 L 4.808594 26.417969 L 4.808594 27.125 C 6.078125 27.125 7.34375 27.125 8.613281 27.125 " fill-opacity="1" fill-rule="evenodd"/><path fill="#fa9397" d="M 4.808594 23.261719 L 4.808594 25.953125 L 14.03125 15.886719 L 13.957031 15.789062 L 4.808594 23.261719 " fill-opacity="1" fill-rule="evenodd"/><path fill="#95c4be" d="M 4.808594 22.855469 L 13.601562 15.671875 L 4.808594 18.59375 Z M 4.808594 22.855469 " fill-opacity="1" fill-rule="evenodd"/><path fill="#ffd0a6" d="M 4.808594 15.421875 L 4.808594 18.257812 L 13.425781 15.394531 Z M 4.808594 15.421875 " fill-opacity="1" fill-rule="evenodd"/><path fill="#c6dadb" d="M 4.808594 11.316406 L 4.808594 15.105469 L 12.972656 15.082031 Z M 4.808594 11.316406 " fill-opacity="1" fill-rule="evenodd"/><path fill="#fa9397" d="M 4.808594 7.484375 L 4.808594 10.96875 L 12.730469 14.621094 Z M 4.808594 7.484375 " fill-opacity="1" fill-rule="evenodd"/><path fill="#fa9397" d="M 4.808594 7.0625 L 12.867188 14.320312 L 4.808594 3.472656 Z M 4.808594 7.0625 " fill-opacity="1" fill-rule="evenodd"/><path fill="#95c4be" d="M 9.082031 2.609375 C 7.65625 2.609375 6.234375 2.609375 4.808594 2.609375 L 4.808594 2.949219 L 13.980469 15.296875 L 9.082031 2.609375 " fill-opacity="1" fill-rule="evenodd"/><path fill="#ffd0a6" d="M 12.128906 2.609375 C 11.222656 2.609375 10.320312 2.609375 9.414062 2.609375 L 14.039062 14.582031 L 12.128906 2.609375 " fill-opacity="1" fill-rule="evenodd"/><path fill="#c6dadb" d="M 12.441406 2.609375 L 14.28125 14.132812 L 14.449219 2.609375 C 13.78125 2.609375 13.109375 2.609375 12.441406 2.609375 " fill-opacity="1" fill-rule="evenodd"/><path fill="#fa9397" d="M 18.238281 2.609375 C 17.078125 2.609375 15.917969 2.609375 14.757812 2.609375 L 14.582031 14.703125 L 14.597656 14.683594 L 18.238281 2.609375 " fill-opacity="1" fill-rule="evenodd"/><path fill="#95c4be" d="M 21.398438 2.609375 C 20.453125 2.609375 19.507812 2.609375 18.5625 2.609375 L 15.40625 13.082031 L 21.398438 2.609375 " fill-opacity="1" fill-rule="evenodd"/><path fill="#ffd0a6" d="M 21.757812 2.609375 L 15.355469 13.796875 L 24.328125 3.277344 L 24.328125 2.609375 C 23.472656 2.609375 22.613281 2.609375 21.757812 2.609375 " fill-opacity="1" fill-rule="evenodd"/><path fill="#c6dadb" d="M 24.328125 8.308594 L 24.328125 3.757812 L 14.574219 15.195312 L 14.574219 15.246094 L 24.328125 8.308594 " fill-opacity="1" fill-rule="evenodd"/><path fill="#fa9397" d="M 24.328125 10.957031 L 24.328125 8.695312 L 15.71875 14.816406 Z M 24.328125 10.957031 " fill-opacity="1" fill-rule="evenodd"/><path fill="#95c4be" d="M 24.328125 11.300781 L 15.652344 15.191406 L 24.328125 13.832031 Z M 24.328125 11.300781 " fill-opacity="1" fill-rule="evenodd"/><path fill="#ffd0a6" d="M 24.328125 17.371094 L 24.328125 14.15625 L 15.242188 15.578125 Z M 24.328125 17.371094 " fill-opacity="1" fill-rule="evenodd"/><path fill="#c6dadb" d="M 24.328125 17.691406 L 15.375 15.925781 L 24.328125 22.34375 Z M 24.328125 17.691406 " fill-opacity="1" fill-rule="evenodd"/><path fill="#fa9397" d="M 24.328125 24.972656 L 24.328125 22.730469 L 14.566406 15.734375 L 14.5625 15.878906 L 24.328125 24.972656 " fill-opacity="1" fill-rule="evenodd"/><path fill="#95c4be" d="M 24.328125 25.402344 L 15.105469 16.808594 L 22.769531 27.125 C 23.289062 27.125 23.808594 27.125 24.328125 27.125 L 24.328125 25.402344 " fill-opacity="1" fill-rule="evenodd"/><path fill="#ffd0a6" d="M 18.011719 27.125 C 19.46875 27.125 20.921875 27.125 22.378906 27.125 L 14.507812 16.53125 L 18.011719 27.125 " fill-opacity="1" fill-rule="evenodd"/><path fill="#000000" d="M 15.460938 21.496094 L 14.222656 18.902344 L 12.382812 18.628906 L 11.160156 16.902344 L 10.328125 14.253906 L 9.214844 14.144531 L 10.238281 12.824219 L 11.589844 12.945312 L 12.378906 13.902344 L 15.890625 8.492188 L 16.246094 11.40625 L 19.136719 8.304688 L 19.921875 11.34375 L 19.742188 11.457031 L 19.363281 14.199219 L 18.914062 14.269531 L 18.296875 16.042969 L 17.804688 16.035156 L 18.003906 16.089844 L 15.882812 17.292969 L 18.945312 18.5 L 18.085938 19.558594 L 16.65625 20.753906 L 15.460938 21.496094 " fill-opacity="1" fill-rule="evenodd"/><path fill="#ffffff" d="M 16.507812 20.476562 L 15.691406 19.832031 L 16.214844 20.703125 L 15.59375 21.058594 L 14.425781 18.613281 L 12.554688 18.335938 L 11.4375 16.757812 L 10.558594 13.960938 L 9.808594 13.886719 L 10.375 13.152344 L 11.4375 13.246094 L 12.46875 14.496094 L 13.449219 14.863281 L 18.980469 8.925781 L 19.566406 11.199219 L 17.917969 12.25 L 19.382812 11.820312 L 19.089844 13.921875 L 17.242188 14.222656 L 18.558594 14.355469 L 18.082031 15.726562 L 15.320312 15.6875 L 17.1875 16.195312 L 15.15625 17.34375 L 18.429688 18.636719 L 17.84375 19.351562 L 16.542969 18.75 L 17.625 19.574219 L 17.074219 20.027344 L 15.996094 19.21875 L 16.855469 20.15625 Z M 12.5625 14.1875 L 15.6875 9.371094 L 15.96875 11.6875 L 13.363281 14.488281 L 12.5625 14.1875 " fill-opacity="1" fill-rule="evenodd"/><g clip-path="url(#6d01dc14b3)"><path stroke-linecap="butt" transform="matrix(0.725806, 0, 0, 0.725806, 2.600804, 0.344422)" fill="none" stroke-linejoin="miter" d="M 0.00104542 -0.00092654 L 0.00104542 39.51331 L 33.439067 39.51331 L 33.439067 -0.00092654 L 0.00104542 -0.00092654 " stroke="#000000" stroke-width="4" stroke-opacity="1" stroke-miterlimit="4"/></g><g fill="#000d16" fill-opacity="1"><g transform="translate(39.939225, 18.603361)"><g><path d="M 7.78125 -7.390625 C 7.78125 -6.742188 7.617188 -6.195312 7.296875 -5.75 C 6.972656 -5.300781 6.523438 -5 5.953125 -4.84375 L 7.625 -1.390625 C 7.78125 -1.054688 7.910156 -0.8125 8.015625 -0.65625 C 8.128906 -0.5 8.238281 -0.394531 8.34375 -0.34375 C 8.457031 -0.289062 8.59375 -0.265625 8.75 -0.265625 L 8.75 0 L 6.171875 0 L 3.859375 -4.734375 L 3.484375 -4.734375 L 3.484375 -1.21875 C 3.484375 -0.832031 3.5625 -0.578125 3.71875 -0.453125 C 3.875 -0.328125 4.132812 -0.265625 4.5 -0.265625 L 4.5 0 L 0.46875 0 L 0.46875 -0.265625 C 0.820312 -0.265625 1.066406 -0.335938 1.203125 -0.484375 C 1.347656 -0.640625 1.421875 -0.890625 1.421875 -1.234375 L 1.421875 -8.921875 C 1.421875 -9.285156 1.34375 -9.535156 1.1875 -9.671875 C 1.039062 -9.816406 0.820312 -9.890625 0.53125 -9.890625 L 0.46875 -9.890625 L 0.46875 -10.15625 L 4.53125 -10.15625 C 5.5 -10.15625 6.28125 -9.925781 6.875 -9.46875 C 7.476562 -9.019531 7.78125 -8.328125 7.78125 -7.390625 Z M 3.8125 -5.1875 C 4.46875 -5.1875 4.9375 -5.359375 5.21875 -5.703125 C 5.5 -6.054688 5.640625 -6.644531 5.640625 -7.46875 C 5.640625 -8.28125 5.488281 -8.835938 5.1875 -9.140625 C 4.882812 -9.453125 4.363281 -9.609375 3.625 -9.609375 L 3.484375 -9.609375 L 3.484375 -5.1875 Z M 3.8125 -5.1875 "/></g></g></g><g fill="#000d16" fill-opacity="1"><g transform="translate(52.107492, 18.603361)"><g><path d="M 4.265625 -10.390625 L 6.796875 -1.921875 C 6.929688 -1.472656 7.039062 -1.144531 7.125 -0.9375 C 7.207031 -0.726562 7.300781 -0.566406 7.40625 -0.453125 C 7.507812 -0.347656 7.648438 -0.285156 7.828125 -0.265625 L 7.828125 0 L 4.265625 0 L 4.265625 -0.265625 C 4.523438 -0.265625 4.710938 -0.296875 4.828125 -0.359375 C 4.941406 -0.421875 5 -0.523438 5 -0.671875 C 5 -0.753906 4.984375 -0.867188 4.953125 -1.015625 C 4.921875 -1.171875 4.894531 -1.300781 4.875 -1.40625 L 4.578125 -2.40625 L 2.046875 -2.40625 L 1.71875 -1.296875 C 1.632812 -1.046875 1.59375 -0.867188 1.59375 -0.765625 C 1.59375 -0.585938 1.648438 -0.457031 1.765625 -0.375 C 1.890625 -0.300781 2.082031 -0.265625 2.34375 -0.265625 L 2.34375 0 L 0.234375 0 L 0.234375 -0.265625 C 0.410156 -0.296875 0.554688 -0.359375 0.671875 -0.453125 C 0.785156 -0.546875 0.882812 -0.695312 0.96875 -0.90625 C 1.0625 -1.113281 1.179688 -1.4375 1.328125 -1.875 L 3.984375 -10.390625 Z M 4.40625 -2.96875 L 3.34375 -6.5 L 3.328125 -6.5 L 2.21875 -2.96875 Z M 4.40625 -2.96875 "/></g></g></g><g fill="#000d16" fill-opacity="1"><g transform="translate(63.501313, 18.603361)"><g><path d="M 4.109375 -9.890625 L 3.984375 -9.890625 C 3.453125 -9.890625 3.1875 -9.570312 3.1875 -8.9375 L 3.1875 -1.25 C 3.1875 -0.882812 3.257812 -0.628906 3.40625 -0.484375 C 3.5625 -0.335938 3.796875 -0.265625 4.109375 -0.265625 L 4.109375 0 L 0.234375 0 L 0.234375 -0.265625 C 0.566406 -0.265625 0.796875 -0.34375 0.921875 -0.5 C 1.054688 -0.664062 1.125 -0.914062 1.125 -1.25 L 1.125 -8.9375 C 1.125 -9.269531 1.050781 -9.507812 0.90625 -9.65625 C 0.769531 -9.8125 0.546875 -9.890625 0.234375 -9.890625 L 0.234375 -10.15625 L 4.109375 -10.15625 Z M 4.109375 -9.890625 "/></g></g></g><g fill="#000d16" fill-opacity="1"><g transform="translate(71.17184, 18.603361)"><g><path d="M 2.921875 -10.390625 C 3.210938 -10.390625 3.46875 -10.351562 3.6875 -10.28125 C 3.90625 -10.207031 4.15625 -10.109375 4.4375 -9.984375 C 4.738281 -9.828125 4.945312 -9.75 5.0625 -9.75 C 5.195312 -9.75 5.300781 -9.796875 5.375 -9.890625 C 5.457031 -9.992188 5.515625 -10.160156 5.546875 -10.390625 L 5.828125 -10.390625 L 5.90625 -7.09375 L 5.640625 -7.09375 C 5.492188 -7.925781 5.191406 -8.59375 4.734375 -9.09375 C 4.285156 -9.59375 3.765625 -9.84375 3.171875 -9.84375 C 2.753906 -9.84375 2.398438 -9.703125 2.109375 -9.421875 C 1.828125 -9.140625 1.6875 -8.785156 1.6875 -8.359375 C 1.6875 -8.046875 1.765625 -7.773438 1.921875 -7.546875 C 2.085938 -7.316406 2.296875 -7.117188 2.546875 -6.953125 C 2.796875 -6.785156 3.144531 -6.582031 3.59375 -6.34375 C 4.164062 -6.03125 4.632812 -5.742188 5 -5.484375 C 5.363281 -5.222656 5.675781 -4.875 5.9375 -4.4375 C 6.195312 -4 6.328125 -3.460938 6.328125 -2.828125 C 6.328125 -2.242188 6.203125 -1.71875 5.953125 -1.25 C 5.703125 -0.789062 5.359375 -0.429688 4.921875 -0.171875 C 4.492188 0.0859375 4.007812 0.21875 3.46875 0.21875 C 3.175781 0.21875 2.914062 0.1875 2.6875 0.125 C 2.457031 0.0625 2.171875 -0.03125 1.828125 -0.15625 C 1.503906 -0.300781 1.273438 -0.375 1.140625 -0.375 C 0.878906 -0.375 0.703125 -0.175781 0.609375 0.21875 L 0.359375 0.21875 L 0.359375 -3.546875 L 0.625 -3.546875 C 0.71875 -2.921875 0.890625 -2.363281 1.140625 -1.875 C 1.398438 -1.382812 1.722656 -1.003906 2.109375 -0.734375 C 2.492188 -0.460938 2.898438 -0.328125 3.328125 -0.328125 C 3.765625 -0.328125 4.128906 -0.484375 4.421875 -0.796875 C 4.710938 -1.117188 4.859375 -1.53125 4.859375 -2.03125 C 4.859375 -2.375 4.796875 -2.644531 4.671875 -2.84375 C 4.554688 -3.050781 4.363281 -3.257812 4.09375 -3.46875 C 3.90625 -3.613281 3.484375 -3.882812 2.828125 -4.28125 L 2.5 -4.484375 C 1.800781 -4.898438 1.265625 -5.332031 0.890625 -5.78125 C 0.523438 -6.238281 0.34375 -6.832031 0.34375 -7.5625 C 0.34375 -8.113281 0.453125 -8.601562 0.671875 -9.03125 C 0.890625 -9.457031 1.191406 -9.789062 1.578125 -10.03125 C 1.972656 -10.269531 2.421875 -10.390625 2.921875 -10.390625 Z M 2.921875 -10.390625 "/></g></g></g><g fill="#000d16" fill-opacity="1"><g transform="translate(81.1657, 18.603361)"><g><path d="M 7.0625 -7.25 L 6.796875 -7.25 C 6.722656 -7.925781 6.539062 -8.4375 6.25 -8.78125 C 5.96875 -9.132812 5.628906 -9.359375 5.234375 -9.453125 C 4.835938 -9.554688 4.367188 -9.609375 3.828125 -9.609375 L 3.3125 -9.609375 L 3.3125 -5.4375 C 3.914062 -5.457031 4.351562 -5.660156 4.625 -6.046875 C 4.90625 -6.441406 5.046875 -7.015625 5.046875 -7.765625 L 5.3125 -7.765625 L 5.3125 -2.609375 L 5.046875 -2.609375 C 5.046875 -3.347656 4.90625 -3.910156 4.625 -4.296875 C 4.351562 -4.679688 3.914062 -4.878906 3.3125 -4.890625 L 3.3125 -1.671875 C 3.3125 -1.335938 3.335938 -1.09375 3.390625 -0.9375 C 3.441406 -0.78125 3.53125 -0.675781 3.65625 -0.625 C 3.78125 -0.570312 3.960938 -0.546875 4.203125 -0.546875 C 4.847656 -0.546875 5.375 -0.628906 5.78125 -0.796875 C 6.1875 -0.972656 6.519531 -1.242188 6.78125 -1.609375 C 7.039062 -1.972656 7.28125 -2.476562 7.5 -3.125 L 7.765625 -3.125 L 7.28125 0 L 0.1875 0 L 0.1875 -0.265625 L 0.34375 -0.265625 C 0.644531 -0.265625 0.867188 -0.332031 1.015625 -0.46875 C 1.171875 -0.613281 1.25 -0.875 1.25 -1.25 L 1.25 -8.90625 C 1.25 -9.28125 1.171875 -9.535156 1.015625 -9.671875 C 0.867188 -9.816406 0.625 -9.890625 0.28125 -9.890625 L 0.1875 -9.890625 L 0.1875 -10.15625 L 7.0625 -10.15625 Z M 7.0625 -7.25 "/></g></g></g><g fill="#ff3131" fill-opacity="1"><g transform="translate(92.571754, 18.603361)"><g/></g></g><g fill="#000d16" fill-opacity="1"><g transform="translate(44.505951, 24.580434)"><g><path d="M 1.453125 -0.6875 L 1.46875 -0.6875 L 2.171875 -2.640625 L 2.8125 -2.640625 L 2.8125 -2.578125 C 2.738281 -2.578125 2.679688 -2.566406 2.640625 -2.546875 C 2.609375 -2.535156 2.582031 -2.503906 2.5625 -2.453125 C 2.539062 -2.410156 2.53125 -2.34375 2.53125 -2.25 L 2.53125 -0.40625 C 2.53125 -0.300781 2.539062 -0.222656 2.5625 -0.171875 C 2.582031 -0.128906 2.609375 -0.0976562 2.640625 -0.078125 C 2.679688 -0.0664062 2.738281 -0.0625 2.8125 -0.0625 L 2.8125 0 L 1.84375 0 L 1.84375 -0.0625 C 1.925781 -0.0625 1.988281 -0.0664062 2.03125 -0.078125 C 2.082031 -0.0976562 2.117188 -0.128906 2.140625 -0.171875 C 2.160156 -0.222656 2.171875 -0.300781 2.171875 -0.40625 L 2.171875 -2.203125 L 2.15625 -2.203125 L 1.375 0 L 1.328125 0 L 0.546875 -2.15625 L 0.53125 -2.15625 L 0.53125 -0.40625 C 0.53125 -0.300781 0.539062 -0.222656 0.5625 -0.171875 C 0.582031 -0.128906 0.613281 -0.0976562 0.65625 -0.078125 C 0.695312 -0.0664062 0.765625 -0.0625 0.859375 -0.0625 L 0.859375 0 L 0.078125 0 L 0.078125 -0.0625 C 0.160156 -0.0625 0.222656 -0.0664062 0.265625 -0.078125 C 0.304688 -0.0976562 0.335938 -0.128906 0.359375 -0.171875 C 0.378906 -0.222656 0.390625 -0.300781 0.390625 -0.40625 L 0.390625 -2.25 C 0.390625 -2.34375 0.378906 -2.410156 0.359375 -2.453125 C 0.335938 -2.503906 0.304688 -2.535156 0.265625 -2.546875 C 0.222656 -2.566406 0.160156 -2.578125 0.078125 -2.578125 L 0.078125 -2.640625 L 0.75 -2.640625 Z M 1.453125 -0.6875 "/></g></g></g><g fill="#000d16" fill-opacity="1"><g transform="translate(50.48105, 24.580434)"><g><path d="M 1.828125 -2.0625 L 1.765625 -2.0625 C 1.742188 -2.1875 1.71875 -2.273438 1.6875 -2.328125 C 1.65625 -2.390625 1.609375 -2.429688 1.546875 -2.453125 C 1.492188 -2.484375 1.414062 -2.5 1.3125 -2.5 L 0.765625 -2.5 L 0.765625 -1.453125 L 1.1875 -1.453125 C 1.289062 -1.453125 1.367188 -1.46875 1.421875 -1.5 C 1.472656 -1.53125 1.503906 -1.570312 1.515625 -1.625 C 1.535156 -1.6875 1.546875 -1.765625 1.546875 -1.859375 L 1.609375 -1.859375 L 1.609375 -0.9375 L 1.546875 -0.9375 C 1.546875 -1.0625 1.523438 -1.15625 1.484375 -1.21875 C 1.453125 -1.28125 1.378906 -1.3125 1.265625 -1.3125 L 0.765625 -1.3125 L 0.765625 -0.34375 C 0.765625 -0.269531 0.773438 -0.21875 0.796875 -0.1875 C 0.816406 -0.15625 0.863281 -0.140625 0.9375 -0.140625 L 1.34375 -0.140625 C 1.507812 -0.140625 1.632812 -0.1875 1.71875 -0.28125 C 1.800781 -0.375 1.875 -0.503906 1.9375 -0.671875 L 2 -0.65625 L 1.796875 0 L 0.0625 0 L 0.0625 -0.0625 C 0.15625 -0.0625 0.222656 -0.0664062 0.265625 -0.078125 C 0.304688 -0.0976562 0.335938 -0.128906 0.359375 -0.171875 C 0.378906 -0.222656 0.390625 -0.300781 0.390625 -0.40625 L 0.390625 -2.25 C 0.390625 -2.34375 0.378906 -2.410156 0.359375 -2.453125 C 0.347656 -2.503906 0.320312 -2.535156 0.28125 -2.546875 C 0.238281 -2.566406 0.175781 -2.578125 0.09375 -2.578125 L 0.0625 -2.578125 L 0.0625 -2.640625 L 1.796875 -2.640625 Z M 1.828125 -2.0625 "/></g></g></g><g fill="#000d16" fill-opacity="1"><g transform="translate(55.687918, 24.580434)"><g><path d="M 1.140625 -2.578125 C 1.046875 -2.578125 0.972656 -2.566406 0.921875 -2.546875 C 0.878906 -2.535156 0.847656 -2.503906 0.828125 -2.453125 C 0.804688 -2.410156 0.796875 -2.34375 0.796875 -2.25 L 0.796875 -0.34375 C 0.796875 -0.257812 0.804688 -0.203125 0.828125 -0.171875 C 0.847656 -0.148438 0.894531 -0.140625 0.96875 -0.140625 L 1.28125 -0.140625 C 1.425781 -0.140625 1.535156 -0.15625 1.609375 -0.1875 C 1.691406 -0.226562 1.753906 -0.285156 1.796875 -0.359375 C 1.847656 -0.441406 1.894531 -0.5625 1.9375 -0.71875 L 2 -0.703125 L 1.8125 0 L 0.078125 0 L 0.078125 -0.0625 C 0.179688 -0.0625 0.253906 -0.0664062 0.296875 -0.078125 C 0.347656 -0.0976562 0.382812 -0.128906 0.40625 -0.171875 C 0.425781 -0.222656 0.4375 -0.296875 0.4375 -0.390625 L 0.4375 -2.25 C 0.4375 -2.34375 0.421875 -2.410156 0.390625 -2.453125 C 0.367188 -2.503906 0.332031 -2.535156 0.28125 -2.546875 C 0.238281 -2.566406 0.171875 -2.578125 0.078125 -2.578125 L 0.078125 -2.640625 L 1.140625 -2.640625 Z M 1.140625 -2.578125 "/></g></g></g><g fill="#000d16" fill-opacity="1"><g transform="translate(60.894787, 24.580434)"><g><path d="M 1.15625 -2.703125 C 1.375 -2.703125 1.5625 -2.632812 1.71875 -2.5 C 1.875 -2.375 1.992188 -2.203125 2.078125 -1.984375 C 2.160156 -1.773438 2.203125 -1.554688 2.203125 -1.328125 C 2.203125 -1.085938 2.160156 -0.859375 2.078125 -0.640625 C 1.992188 -0.429688 1.875 -0.257812 1.71875 -0.125 C 1.5625 0 1.375 0.0625 1.15625 0.0625 C 0.9375 0.0625 0.75 0 0.59375 -0.125 C 0.4375 -0.25 0.316406 -0.414062 0.234375 -0.625 C 0.148438 -0.84375 0.109375 -1.078125 0.109375 -1.328125 C 0.109375 -1.554688 0.144531 -1.773438 0.21875 -1.984375 C 0.300781 -2.203125 0.421875 -2.375 0.578125 -2.5 C 0.734375 -2.632812 0.925781 -2.703125 1.15625 -2.703125 Z M 0.53125 -1.328125 C 0.53125 -0.890625 0.578125 -0.570312 0.671875 -0.375 C 0.773438 -0.175781 0.9375 -0.078125 1.15625 -0.078125 C 1.375 -0.078125 1.53125 -0.179688 1.625 -0.390625 C 1.71875 -0.597656 1.765625 -0.910156 1.765625 -1.328125 C 1.765625 -1.765625 1.710938 -2.078125 1.609375 -2.265625 C 1.515625 -2.460938 1.359375 -2.5625 1.140625 -2.5625 C 0.960938 -2.5625 0.828125 -2.492188 0.734375 -2.359375 C 0.648438 -2.234375 0.59375 -2.082031 0.5625 -1.90625 C 0.539062 -1.726562 0.53125 -1.535156 0.53125 -1.328125 Z M 0.53125 -1.328125 "/></g></g></g><g fill="#000d16" fill-opacity="1"><g transform="translate(66.303412, 24.580434)"><g><path d="M 2.390625 -1.3125 C 2.390625 -1.039062 2.328125 -0.804688 2.203125 -0.609375 C 2.085938 -0.410156 1.929688 -0.257812 1.734375 -0.15625 C 1.546875 -0.0507812 1.34375 0 1.125 0 L 0.078125 0 L 0.078125 -0.0625 C 0.171875 -0.0625 0.238281 -0.0664062 0.28125 -0.078125 C 0.320312 -0.0976562 0.351562 -0.128906 0.375 -0.171875 C 0.394531 -0.222656 0.40625 -0.300781 0.40625 -0.40625 L 0.40625 -2.25 C 0.40625 -2.351562 0.394531 -2.425781 0.375 -2.46875 C 0.351562 -2.507812 0.320312 -2.535156 0.28125 -2.546875 C 0.238281 -2.566406 0.171875 -2.578125 0.078125 -2.578125 L 0.078125 -2.640625 L 1.09375 -2.640625 C 1.351562 -2.640625 1.582031 -2.582031 1.78125 -2.46875 C 1.976562 -2.363281 2.128906 -2.207031 2.234375 -2 C 2.335938 -1.800781 2.390625 -1.570312 2.390625 -1.3125 Z M 0.78125 -2.453125 L 0.78125 -0.1875 C 0.875 -0.144531 0.984375 -0.125 1.109375 -0.125 C 1.378906 -0.125 1.585938 -0.222656 1.734375 -0.421875 C 1.878906 -0.628906 1.953125 -0.921875 1.953125 -1.296875 C 1.953125 -1.660156 1.875 -1.953125 1.71875 -2.171875 C 1.570312 -2.390625 1.351562 -2.5 1.0625 -2.5 C 0.96875 -2.5 0.875 -2.484375 0.78125 -2.453125 Z M 0.78125 -2.453125 "/></g></g></g><g fill="#000d16" fill-opacity="1"><g transform="translate(71.913796, 24.580434)"><g><path d="M 1.078125 -2.578125 C 0.992188 -2.578125 0.925781 -2.566406 0.875 -2.546875 C 0.832031 -2.535156 0.800781 -2.503906 0.78125 -2.453125 C 0.757812 -2.410156 0.75 -2.34375 0.75 -2.25 L 0.75 -0.40625 C 0.75 -0.300781 0.757812 -0.222656 0.78125 -0.171875 C 0.800781 -0.128906 0.832031 -0.0976562 0.875 -0.078125 C 0.914062 -0.0664062 0.984375 -0.0625 1.078125 -0.0625 L 1.078125 0 L 0.0625 0 L 0.0625 -0.0625 C 0.144531 -0.0625 0.207031 -0.0664062 0.25 -0.078125 C 0.300781 -0.0976562 0.335938 -0.128906 0.359375 -0.171875 C 0.378906 -0.222656 0.390625 -0.300781 0.390625 -0.40625 L 0.390625 -2.25 C 0.390625 -2.34375 0.375 -2.410156 0.34375 -2.453125 C 0.320312 -2.503906 0.289062 -2.535156 0.25 -2.546875 C 0.207031 -2.566406 0.144531 -2.578125 0.0625 -2.578125 L 0.0625 -2.640625 L 1.078125 -2.640625 Z M 1.078125 -2.578125 "/></g></g></g><g fill="#000d16" fill-opacity="1"><g transform="translate(76.150678, 24.580434)"><g><path d="M 1.828125 -2.0625 L 1.765625 -2.0625 C 1.742188 -2.1875 1.71875 -2.273438 1.6875 -2.328125 C 1.65625 -2.390625 1.609375 -2.429688 1.546875 -2.453125 C 1.492188 -2.484375 1.414062 -2.5 1.3125 -2.5 L 0.765625 -2.5 L 0.765625 -1.453125 L 1.1875 -1.453125 C 1.289062 -1.453125 1.367188 -1.46875 1.421875 -1.5 C 1.472656 -1.53125 1.503906 -1.570312 1.515625 -1.625 C 1.535156 -1.6875 1.546875 -1.765625 1.546875 -1.859375 L 1.609375 -1.859375 L 1.609375 -0.9375 L 1.546875 -0.9375 C 1.546875 -1.0625 1.523438 -1.15625 1.484375 -1.21875 C 1.453125 -1.28125 1.378906 -1.3125 1.265625 -1.3125 L 0.765625 -1.3125 L 0.765625 -0.34375 C 0.765625 -0.269531 0.773438 -0.21875 0.796875 -0.1875 C 0.816406 -0.15625 0.863281 -0.140625 0.9375 -0.140625 L 1.34375 -0.140625 C 1.507812 -0.140625 1.632812 -0.1875 1.71875 -0.28125 C 1.800781 -0.375 1.875 -0.503906 1.9375 -0.671875 L 2 -0.65625 L 1.796875 0 L 0.0625 0 L 0.0625 -0.0625 C 0.15625 -0.0625 0.222656 -0.0664062 0.265625 -0.078125 C 0.304688 -0.0976562 0.335938 -0.128906 0.359375 -0.171875 C 0.378906 -0.222656 0.390625 -0.300781 0.390625 -0.40625 L 0.390625 -2.25 C 0.390625 -2.34375 0.378906 -2.410156 0.359375 -2.453125 C 0.347656 -2.503906 0.320312 -2.535156 0.28125 -2.546875 C 0.238281 -2.566406 0.175781 -2.578125 0.09375 -2.578125 L 0.0625 -2.578125 L 0.0625 -2.640625 L 1.796875 -2.640625 Z M 1.828125 -2.0625 "/></g></g></g><g fill="#000d16" fill-opacity="1"><g transform="translate(81.357545, 24.580434)"><g><path d="M 0.765625 -2.703125 C 0.847656 -2.703125 0.921875 -2.691406 0.984375 -2.671875 C 1.046875 -2.660156 1.109375 -2.640625 1.171875 -2.609375 C 1.222656 -2.578125 1.257812 -2.5625 1.28125 -2.5625 C 1.351562 -2.5625 1.398438 -2.609375 1.421875 -2.703125 L 1.484375 -2.703125 L 1.484375 -1.84375 L 1.421875 -1.84375 C 1.421875 -2 1.382812 -2.128906 1.3125 -2.234375 C 1.25 -2.347656 1.171875 -2.425781 1.078125 -2.46875 C 0.984375 -2.519531 0.890625 -2.546875 0.796875 -2.546875 C 0.691406 -2.546875 0.601562 -2.515625 0.53125 -2.453125 C 0.457031 -2.390625 0.421875 -2.304688 0.421875 -2.203125 C 0.421875 -2.109375 0.441406 -2.023438 0.484375 -1.953125 C 0.535156 -1.878906 0.601562 -1.804688 0.6875 -1.734375 C 0.71875 -1.703125 0.8125 -1.640625 0.96875 -1.546875 C 1.101562 -1.441406 1.210938 -1.351562 1.296875 -1.28125 C 1.378906 -1.21875 1.445312 -1.144531 1.5 -1.0625 C 1.539062 -1.007812 1.570312 -0.945312 1.59375 -0.875 C 1.613281 -0.800781 1.625 -0.726562 1.625 -0.65625 C 1.625 -0.53125 1.585938 -0.410156 1.515625 -0.296875 C 1.453125 -0.179688 1.363281 -0.09375 1.25 -0.03125 C 1.144531 0.03125 1.023438 0.0625 0.890625 0.0625 C 0.816406 0.0625 0.753906 0.0507812 0.703125 0.03125 C 0.648438 0.0195312 0.585938 0 0.515625 -0.03125 C 0.441406 -0.0625 0.390625 -0.078125 0.359375 -0.078125 C 0.273438 -0.078125 0.226562 -0.0351562 0.21875 0.046875 L 0.140625 0.046875 L 0.140625 -0.828125 L 0.21875 -0.828125 C 0.21875 -0.671875 0.25 -0.535156 0.3125 -0.421875 C 0.382812 -0.304688 0.46875 -0.222656 0.5625 -0.171875 C 0.65625 -0.117188 0.753906 -0.09375 0.859375 -0.09375 C 0.984375 -0.09375 1.082031 -0.128906 1.15625 -0.203125 C 1.226562 -0.285156 1.265625 -0.390625 1.265625 -0.515625 C 1.265625 -0.671875 1.207031 -0.8125 1.09375 -0.9375 C 1.019531 -0.988281 0.90625 -1.070312 0.75 -1.1875 C 0.582031 -1.300781 0.46875 -1.390625 0.40625 -1.453125 C 0.3125 -1.535156 0.238281 -1.625 0.1875 -1.71875 C 0.144531 -1.8125 0.125 -1.914062 0.125 -2.03125 C 0.125 -2.226562 0.179688 -2.390625 0.296875 -2.515625 C 0.421875 -2.640625 0.578125 -2.703125 0.765625 -2.703125 Z M 0.765625 -2.703125 "/></g></g></g><g fill="#000d16" fill-opacity="1"><g transform="translate(86.199944, 24.580434)"><g/></g></g><g clip-path="url(#84a902954a)"><g clip-path="url(#12f5d48470)"><g clip-path="url(#6494da2aa0)"><path fill="#000d16" d="M 33.304688 5.511719 C 32.84375 5.480469 32.386719 5.496094 31.9375 5.550781 C 31.605469 5.589844 31.277344 5.65625 30.957031 5.742188 C 30.9375 5.84375 30.949219 5.949219 30.949219 6.050781 C 30.953125 6.164062 30.953125 6.277344 30.953125 6.390625 C 31.683594 6.222656 32.457031 6.230469 33.171875 6.398438 C 33.558594 6.488281 33.925781 6.625 34.261719 6.804688 C 34.429688 6.890625 34.589844 6.988281 34.742188 7.097656 C 34.894531 7.203125 35.035156 7.320312 35.164062 7.445312 C 35.226562 7.507812 35.289062 7.574219 35.347656 7.636719 C 35.355469 7.648438 35.363281 7.65625 35.371094 7.664062 L 35.390625 7.6875 L 35.4375 7.742188 C 35.464844 7.777344 35.496094 7.808594 35.523438 7.847656 C 35.636719 7.988281 35.734375 8.136719 35.828125 8.289062 C 35.921875 8.441406 36 8.597656 36.070312 8.757812 C 36.140625 8.921875 36.199219 9.085938 36.25 9.253906 L 36.289062 9.382812 C 36.300781 9.425781 36.308594 9.46875 36.320312 9.511719 C 36.324219 9.53125 36.332031 9.554688 36.335938 9.574219 L 36.359375 9.707031 L 36.367188 9.738281 L 36.371094 9.769531 L 36.394531 9.902344 L 36.410156 10.035156 C 36.417969 10.078125 36.421875 10.125 36.425781 10.167969 C 36.429688 10.214844 36.433594 10.257812 36.4375 10.304688 L 36.445312 10.4375 L 36.445312 10.574219 C 36.449219 10.621094 36.445312 10.667969 36.445312 10.710938 C 36.445312 10.757812 36.445312 10.800781 36.441406 10.847656 L 36.433594 10.984375 L 36.421875 11.121094 C 36.417969 11.167969 36.410156 11.214844 36.40625 11.261719 C 36.402344 11.304688 36.394531 11.351562 36.386719 11.398438 C 36.332031 11.765625 36.242188 12.128906 36.117188 12.484375 L 36.070312 12.617188 C 36.054688 12.660156 36.035156 12.703125 36.019531 12.75 L 35.992188 12.816406 L 35.964844 12.878906 C 35.945312 12.921875 35.929688 12.96875 35.910156 13.011719 L 35.851562 13.136719 L 35.835938 13.171875 L 35.816406 13.203125 L 35.785156 13.269531 L 35.71875 13.40625 L 35.648438 13.539062 C 35.464844 13.890625 35.261719 14.238281 35.042969 14.585938 C 34.824219 14.929688 34.589844 15.269531 34.351562 15.609375 C 33.867188 16.289062 33.351562 16.960938 32.839844 17.652344 C 32.660156 17.894531 32.480469 18.140625 32.304688 18.390625 C 32.28125 18.433594 32.257812 18.472656 32.234375 18.511719 C 32.179688 18.601562 32.117188 18.683594 32.054688 18.765625 C 31.9375 18.925781 31.820312 19.089844 31.714844 19.257812 C 31.710938 19.265625 31.703125 19.273438 31.699219 19.28125 C 31.699219 19.285156 31.695312 19.289062 31.695312 19.289062 C 31.695312 19.292969 31.695312 19.292969 31.695312 19.292969 C 31.582031 19.464844 31.472656 19.636719 31.367188 19.816406 C 31.253906 20.003906 31.144531 20.195312 31.035156 20.390625 C 30.984375 20.488281 30.933594 20.585938 30.878906 20.683594 C 30.875 20.695312 30.867188 20.710938 30.859375 20.722656 L 30.839844 20.765625 C 30.824219 20.792969 30.8125 20.820312 30.800781 20.847656 C 30.773438 20.902344 30.75 20.957031 30.726562 21.011719 C 30.632812 21.230469 30.558594 21.449219 30.496094 21.667969 C 30.429688 21.886719 30.375 22.105469 30.328125 22.320312 C 30.234375 22.757812 30.167969 23.195312 30.121094 23.632812 C 30.074219 24.070312 30.046875 24.507812 30.039062 24.953125 C 30.039062 25.0625 30.042969 25.175781 30.046875 25.289062 C 30.046875 25.316406 30.046875 25.34375 30.046875 25.375 C 30.050781 25.402344 30.050781 25.429688 30.054688 25.460938 C 30.054688 25.488281 30.054688 25.515625 30.058594 25.546875 C 30.0625 25.574219 30.0625 25.601562 30.066406 25.632812 C 30.089844 25.859375 30.125 26.082031 30.164062 26.300781 C 30.210938 26.519531 30.261719 26.738281 30.328125 26.957031 C 30.34375 27.011719 30.363281 27.066406 30.378906 27.117188 C 30.398438 27.171875 30.417969 27.226562 30.4375 27.28125 C 30.476562 27.386719 30.523438 27.496094 30.570312 27.601562 C 30.621094 27.707031 30.675781 27.8125 30.738281 27.914062 C 30.800781 28.019531 30.871094 28.117188 30.953125 28.214844 C 31.035156 28.3125 31.125 28.410156 31.230469 28.5 L 31.316406 28.5625 C 31.34375 28.582031 31.375 28.601562 31.40625 28.621094 C 31.421875 28.632812 31.4375 28.640625 31.449219 28.648438 L 31.496094 28.675781 C 31.511719 28.683594 31.527344 28.691406 31.542969 28.699219 L 31.589844 28.722656 C 31.621094 28.738281 31.65625 28.75 31.691406 28.765625 C 31.726562 28.777344 31.761719 28.789062 31.796875 28.800781 L 31.855469 28.8125 C 31.875 28.820312 31.894531 28.824219 31.914062 28.828125 C 31.953125 28.832031 31.996094 28.839844 32.035156 28.839844 C 32.121094 28.847656 32.207031 28.84375 32.292969 28.828125 C 32.335938 28.820312 32.378906 28.8125 32.421875 28.800781 C 32.441406 28.792969 32.464844 28.789062 32.484375 28.78125 C 32.503906 28.773438 32.523438 28.765625 32.546875 28.757812 C 32.625 28.722656 32.703125 28.679688 32.769531 28.632812 C 32.804688 28.605469 32.835938 28.582031 32.867188 28.554688 C 32.882812 28.542969 32.898438 28.527344 32.910156 28.515625 C 32.925781 28.5 32.941406 28.488281 32.957031 28.472656 C 33.066406 28.359375 33.15625 28.234375 33.222656 28.105469 C 33.289062 27.976562 33.335938 27.839844 33.363281 27.703125 C 33.390625 27.5625 33.402344 27.425781 33.40625 27.285156 L 33.402344 26.625 C 33.402344 26.515625 33.394531 26.40625 33.390625 26.296875 L 33.378906 25.972656 C 33.371094 25.753906 33.351562 25.535156 33.335938 25.320312 C 33.273438 24.453125 33.167969 23.59375 33.039062 22.742188 L 32.9375 22.105469 C 32.917969 22 32.902344 21.894531 32.882812 21.789062 L 32.828125 21.472656 C 32.792969 21.261719 32.753906 21.050781 32.714844 20.839844 C 32.714844 20.839844 32.65625 20.523438 32.65625 20.523438 C 32.644531 20.441406 32.625 20.355469 32.613281 20.273438 C 32.550781 20.378906 32.453125 20.484375 32.375 20.585938 C 32.273438 20.71875 32.195312 20.859375 32.089844 20.988281 C 32.054688 21.035156 31.984375 21.089844 31.992188 21.152344 C 32.011719 21.296875 32.035156 21.445312 32.050781 21.589844 L 32.09375 21.90625 C 32.105469 22.011719 32.121094 22.117188 32.128906 22.222656 L 32.203125 22.851562 C 32.292969 23.691406 32.359375 24.535156 32.386719 25.371094 C 32.390625 25.582031 32.402344 25.789062 32.398438 26 L 32.398438 26.3125 C 32.398438 26.417969 32.402344 26.519531 32.394531 26.625 L 32.375 27.246094 C 32.371094 27.316406 32.351562 27.390625 32.332031 27.460938 C 32.308594 27.53125 32.285156 27.597656 32.265625 27.660156 C 32.246094 27.726562 32.21875 27.785156 32.195312 27.835938 C 32.167969 27.882812 32.144531 27.925781 32.117188 27.957031 C 32.113281 27.960938 32.109375 27.964844 32.105469 27.96875 C 32.101562 27.972656 32.097656 27.976562 32.09375 27.980469 C 32.085938 27.988281 32.078125 27.996094 32.070312 28.003906 C 32.054688 28.015625 32.035156 28.027344 32.011719 28.035156 C 31.988281 28.046875 31.960938 28.050781 31.933594 28.054688 C 31.917969 28.054688 31.902344 28.054688 31.882812 28.054688 L 31.859375 28.050781 C 31.851562 28.050781 31.839844 28.050781 31.832031 28.046875 C 31.816406 28.042969 31.796875 28.042969 31.777344 28.035156 L 31.75 28.027344 C 31.742188 28.023438 31.730469 28.019531 31.722656 28.015625 C 31.707031 28.011719 31.691406 28.003906 31.675781 27.996094 L 31.628906 27.96875 C 31.566406 27.929688 31.503906 27.875 31.449219 27.808594 C 31.394531 27.738281 31.347656 27.664062 31.300781 27.582031 C 31.257812 27.503906 31.214844 27.417969 31.175781 27.328125 C 31.140625 27.238281 31.105469 27.148438 31.074219 27.054688 C 31.058594 27.007812 31.042969 26.960938 31.027344 26.914062 C 31.015625 26.863281 31 26.816406 30.988281 26.769531 C 30.9375 26.574219 30.898438 26.375 30.867188 26.175781 C 30.835938 25.976562 30.8125 25.777344 30.804688 25.578125 C 30.800781 25.476562 30.796875 25.382812 30.800781 25.28125 C 30.800781 25.179688 30.804688 25.078125 30.8125 24.976562 C 30.824219 24.773438 30.84375 24.566406 30.867188 24.363281 C 30.890625 24.15625 30.921875 23.953125 30.957031 23.75 C 31.027344 23.339844 31.113281 22.9375 31.226562 22.546875 C 31.285156 22.351562 31.347656 22.160156 31.417969 21.972656 C 31.589844 21.515625 31.835938 21.089844 32.117188 20.6875 C 32.394531 20.289062 32.683594 19.898438 32.988281 19.523438 C 33.273438 19.164062 33.570312 18.816406 33.867188 18.472656 L 34.703125 17.503906 C 34.980469 17.175781 35.261719 16.84375 35.535156 16.503906 C 35.804688 16.160156 36.074219 15.808594 36.328125 15.445312 C 36.585938 15.078125 36.828125 14.699219 37.050781 14.304688 L 37.136719 14.15625 L 37.21875 14.007812 L 37.257812 13.933594 L 37.296875 13.855469 L 37.375 13.695312 C 37.476562 13.480469 37.574219 13.261719 37.65625 13.039062 C 37.820312 12.59375 37.945312 12.128906 38.023438 11.652344 C 38.097656 11.175781 38.125 10.683594 38.09375 10.191406 C 38.089844 10.132812 38.082031 10.070312 38.078125 10.007812 C 38.070312 9.945312 38.0625 9.886719 38.054688 9.824219 C 38.046875 9.761719 38.039062 9.703125 38.027344 9.640625 L 37.992188 9.457031 L 37.984375 9.410156 L 37.972656 9.367188 L 37.949219 9.273438 L 37.929688 9.183594 C 37.921875 9.15625 37.910156 9.125 37.902344 9.09375 C 37.886719 9.035156 37.867188 8.972656 37.847656 8.914062 L 37.789062 8.738281 C 37.777344 8.707031 37.765625 8.679688 37.753906 8.648438 L 37.683594 8.476562 L 37.605469 8.304688 C 37.59375 8.273438 37.582031 8.246094 37.566406 8.21875 L 37.476562 8.050781 C 37.464844 8.023438 37.445312 7.996094 37.429688 7.96875 L 37.382812 7.890625 L 37.335938 7.808594 L 37.28125 7.730469 L 37.230469 7.652344 C 37.214844 7.625 37.195312 7.601562 37.175781 7.574219 L 37.066406 7.425781 C 37.046875 7.398438 37.027344 7.375 37.007812 7.351562 L 36.949219 7.28125 L 36.886719 7.207031 C 36.867188 7.183594 36.847656 7.160156 36.824219 7.140625 C 36.78125 7.09375 36.742188 7.046875 36.699219 7.003906 L 36.566406 6.875 C 36.523438 6.828125 36.476562 6.789062 36.429688 6.75 L 36.359375 6.6875 L 36.324219 6.660156 C 36.3125 6.648438 36.300781 6.640625 36.289062 6.628906 C 36.238281 6.589844 36.191406 6.550781 36.140625 6.511719 C 36.089844 6.476562 36.039062 6.4375 35.988281 6.402344 C 35.785156 6.261719 35.570312 6.140625 35.351562 6.035156 C 35.132812 5.933594 34.90625 5.84375 34.679688 5.773438 C 34.226562 5.628906 33.761719 5.546875 33.304688 5.511719 " fill-opacity="1" fill-rule="nonzero"/></g></g></g><g clip-path="url(#5366cdbb0d)"><g clip-path="url(#f9148c3dbe)"><g clip-path="url(#8fd755a514)"><path fill="#000d16" d="M 33.46875 2.921875 C 33.460938 2.917969 33.453125 2.917969 33.453125 2.914062 C 33.449219 2.917969 33.449219 2.914062 33.449219 2.914062 C 33.449219 2.914062 33.449219 2.914062 33.453125 2.914062 C 33.457031 2.914062 33.457031 2.914062 33.460938 2.914062 C 33.46875 2.914062 33.472656 2.914062 33.472656 2.914062 C 33.476562 2.914062 33.476562 2.910156 33.476562 2.910156 C 33.476562 2.90625 33.476562 2.90625 33.480469 2.90625 C 33.480469 2.90625 33.484375 2.910156 33.488281 2.917969 C 33.480469 2.917969 33.472656 2.921875 33.46875 2.921875 Z M 30.003906 6.074219 C 30.027344 6.300781 30.042969 6.53125 30.039062 6.761719 C 30.113281 7.914062 30.25 9.050781 30.410156 10.183594 C 30.523438 10.976562 30.648438 11.765625 30.765625 12.554688 C 30.769531 12.566406 30.917969 12.605469 30.933594 12.609375 C 30.996094 12.628906 31.058594 12.640625 31.121094 12.648438 C 31.140625 12.652344 31.371094 12.675781 31.371094 12.664062 C 31.367188 12.65625 31.367188 12.648438 31.367188 12.636719 C 31.25 11.792969 31.144531 10.949219 31.054688 10.101562 C 30.964844 9.257812 30.890625 8.414062 30.851562 7.570312 L 30.824219 6.9375 L 30.816406 6.539062 C 30.816406 6.53125 30.816406 6.527344 30.816406 6.519531 C 30.816406 6.351562 30.816406 6.183594 30.8125 6.015625 C 30.808594 5.925781 30.804688 5.832031 30.816406 5.742188 L 30.816406 5.675781 L 30.835938 5.046875 C 30.851562 4.628906 30.878906 4.21875 30.945312 3.832031 C 30.980469 3.636719 31.023438 3.445312 31.078125 3.265625 C 31.09375 3.21875 31.109375 3.175781 31.125 3.128906 C 31.140625 3.085938 31.15625 3.042969 31.175781 3 L 31.199219 2.9375 L 31.230469 2.871094 C 31.246094 2.832031 31.269531 2.789062 31.289062 2.75 C 31.371094 2.585938 31.472656 2.433594 31.582031 2.296875 C 31.691406 2.160156 31.816406 2.042969 31.949219 1.941406 C 31.964844 1.929688 31.980469 1.917969 32 1.90625 C 32.015625 1.894531 32.03125 1.882812 32.050781 1.871094 C 32.085938 1.851562 32.117188 1.828125 32.152344 1.8125 L 32.207031 1.785156 L 32.257812 1.761719 C 32.292969 1.746094 32.332031 1.734375 32.367188 1.71875 C 32.515625 1.667969 32.675781 1.644531 32.824219 1.644531 C 32.976562 1.644531 33.121094 1.671875 33.25 1.71875 C 33.265625 1.726562 33.28125 1.734375 33.296875 1.742188 L 33.320312 1.75 C 33.324219 1.753906 33.328125 1.753906 33.332031 1.757812 L 33.339844 1.761719 C 33.371094 1.78125 33.398438 1.792969 33.425781 1.8125 C 33.4375 1.820312 33.453125 1.832031 33.464844 1.839844 C 33.476562 1.847656 33.488281 1.855469 33.5 1.867188 L 33.53125 1.898438 C 33.542969 1.90625 33.550781 1.917969 33.5625 1.929688 C 33.601562 1.972656 33.636719 2.023438 33.667969 2.078125 C 33.699219 2.136719 33.722656 2.195312 33.742188 2.253906 C 33.757812 2.316406 33.769531 2.375 33.773438 2.4375 C 33.777344 2.496094 33.773438 2.550781 33.761719 2.601562 C 33.753906 2.652344 33.738281 2.699219 33.714844 2.738281 C 33.710938 2.746094 33.707031 2.757812 33.699219 2.765625 L 33.691406 2.777344 C 33.6875 2.78125 33.683594 2.789062 33.679688 2.792969 L 33.675781 2.796875 L 33.671875 2.804688 C 33.667969 2.808594 33.664062 2.808594 33.664062 2.8125 C 33.65625 2.820312 33.648438 2.828125 33.640625 2.835938 C 33.613281 2.863281 33.578125 2.886719 33.546875 2.902344 C 33.539062 2.902344 33.53125 2.90625 33.523438 2.910156 C 33.582031 2.585938 33.398438 2.253906 33.078125 2.136719 C 32.714844 2 32.3125 2.1875 32.179688 2.546875 C 32.136719 2.671875 32.113281 2.804688 32.113281 2.933594 C 32.113281 3.0625 32.132812 3.183594 32.164062 3.296875 C 32.234375 3.519531 32.351562 3.699219 32.496094 3.851562 C 32.574219 3.925781 32.65625 3.992188 32.746094 4.046875 C 32.839844 4.105469 32.9375 4.152344 33.046875 4.183594 C 33.074219 4.191406 33.101562 4.199219 33.132812 4.207031 C 33.160156 4.214844 33.191406 4.21875 33.214844 4.222656 C 33.265625 4.230469 33.316406 4.238281 33.371094 4.238281 C 33.472656 4.246094 33.574219 4.234375 33.671875 4.222656 C 33.867188 4.1875 34.039062 4.117188 34.195312 4.023438 C 34.347656 3.933594 34.476562 3.820312 34.59375 3.6875 C 34.621094 3.65625 34.648438 3.621094 34.675781 3.585938 L 34.710938 3.53125 L 34.730469 3.503906 L 34.746094 3.476562 L 34.78125 3.421875 C 34.789062 3.402344 34.800781 3.386719 34.808594 3.367188 C 34.832031 3.328125 34.847656 3.289062 34.863281 3.25 C 34.929688 3.09375 34.972656 2.933594 34.992188 2.773438 C 35.011719 2.613281 35.007812 2.453125 34.988281 2.300781 C 34.96875 2.148438 34.929688 2 34.878906 1.859375 C 34.773438 1.578125 34.609375 1.320312 34.390625 1.105469 C 34.363281 1.082031 34.335938 1.054688 34.304688 1.027344 L 34.261719 0.992188 L 34.214844 0.957031 C 34.183594 0.929688 34.152344 0.910156 34.121094 0.886719 C 34.085938 0.867188 34.054688 0.847656 34.023438 0.828125 C 33.960938 0.789062 33.890625 0.757812 33.824219 0.726562 L 33.800781 0.714844 C 33.792969 0.710938 33.785156 0.710938 33.773438 0.707031 L 33.722656 0.6875 C 33.691406 0.675781 33.65625 0.660156 33.621094 0.648438 L 33.515625 0.617188 C 33.5 0.613281 33.480469 0.609375 33.464844 0.605469 L 33.414062 0.59375 L 33.308594 0.574219 L 33.203125 0.558594 L 33.148438 0.550781 C 33.132812 0.550781 33.113281 0.550781 33.097656 0.546875 L 32.992188 0.542969 C 32.957031 0.539062 32.921875 0.542969 32.890625 0.542969 L 32.835938 0.542969 C 32.820312 0.542969 32.804688 0.542969 32.785156 0.546875 C 32.71875 0.550781 32.648438 0.554688 32.582031 0.566406 C 32.546875 0.570312 32.515625 0.574219 32.480469 0.582031 L 32.382812 0.601562 L 32.332031 0.613281 C 32.316406 0.617188 32.296875 0.621094 32.28125 0.625 L 32.183594 0.65625 C 32.152344 0.664062 32.121094 0.675781 32.089844 0.6875 C 32.058594 0.699219 32.023438 0.707031 31.996094 0.722656 C 31.933594 0.75 31.871094 0.773438 31.808594 0.804688 L 31.71875 0.851562 L 31.632812 0.902344 C 31.570312 0.933594 31.519531 0.972656 31.464844 1.011719 C 31.4375 1.027344 31.410156 1.050781 31.386719 1.070312 C 31.359375 1.089844 31.332031 1.109375 31.308594 1.128906 C 31.105469 1.296875 30.929688 1.484375 30.78125 1.6875 C 30.636719 1.890625 30.511719 2.105469 30.410156 2.328125 C 30.386719 2.382812 30.363281 2.441406 30.339844 2.496094 L 30.277344 2.667969 C 30.257812 2.722656 30.238281 2.78125 30.222656 2.839844 C 30.203125 2.894531 30.1875 2.953125 30.171875 3.011719 C 30.117188 3.238281 30.074219 3.46875 30.042969 3.695312 C 29.984375 4.152344 29.976562 4.597656 29.980469 5.03125 C 29.980469 5.378906 29.988281 5.726562 30.003906 6.074219 " fill-opacity="1" fill-rule="nonzero"/></g></g></g><g clip-path="url(#7d9b4cb358)"><g clip-path="url(#dd3f1892d2)"><g clip-path="url(#7ecf40514c)"><path fill="#000d16" d="M 27.070312 10.503906 C 27.070312 10.566406 27.070312 10.628906 27.070312 10.691406 L 27.074219 10.785156 L 27.082031 10.878906 C 27.085938 10.941406 27.097656 11.003906 27.101562 11.070312 C 27.105469 11.101562 27.113281 11.132812 27.117188 11.164062 C 27.121094 11.195312 27.128906 11.226562 27.132812 11.257812 C 27.183594 11.511719 27.257812 11.765625 27.367188 12.007812 C 27.476562 12.25 27.617188 12.484375 27.78125 12.695312 C 27.945312 12.90625 28.136719 13.097656 28.339844 13.261719 C 28.441406 13.34375 28.546875 13.421875 28.65625 13.492188 C 28.667969 13.5 28.683594 13.507812 28.695312 13.519531 L 28.734375 13.542969 L 28.816406 13.589844 C 28.871094 13.625 28.925781 13.65625 28.980469 13.683594 L 29.148438 13.773438 C 29.207031 13.796875 29.261719 13.824219 29.320312 13.847656 C 29.347656 13.863281 29.378906 13.875 29.40625 13.886719 L 29.492188 13.921875 C 29.550781 13.941406 29.609375 13.964844 29.667969 13.984375 L 29.847656 14.042969 L 29.890625 14.058594 C 29.90625 14.0625 29.921875 14.066406 29.9375 14.070312 L 30.027344 14.09375 C 30.148438 14.128906 30.269531 14.152344 30.390625 14.175781 C 30.453125 14.1875 30.515625 14.195312 30.578125 14.207031 L 30.667969 14.21875 C 30.847656 14.246094 31.027344 14.257812 31.207031 14.261719 C 31.335938 14.265625 31.46875 14.242188 31.59375 14.253906 C 31.597656 14.25 31.59375 14.25 31.59375 14.246094 C 31.628906 14.246094 31.664062 14.242188 31.703125 14.242188 C 31.71875 14.238281 31.734375 14.238281 31.75 14.238281 L 31.796875 14.230469 L 31.890625 14.21875 C 32.015625 14.203125 32.140625 14.175781 32.265625 14.152344 C 32.328125 14.136719 32.390625 14.121094 32.453125 14.105469 C 32.484375 14.09375 32.511719 14.085938 32.542969 14.078125 L 32.636719 14.046875 L 32.726562 14.015625 C 32.757812 14.007812 32.789062 13.996094 32.816406 13.984375 L 32.90625 13.949219 L 32.992188 13.910156 C 33.050781 13.882812 33.109375 13.859375 33.164062 13.828125 C 33.222656 13.800781 33.277344 13.773438 33.332031 13.738281 C 33.390625 13.707031 33.445312 13.675781 33.496094 13.640625 L 33.578125 13.589844 C 33.605469 13.574219 33.628906 13.554688 33.65625 13.535156 L 33.734375 13.480469 L 33.808594 13.421875 C 33.835938 13.402344 33.859375 13.382812 33.882812 13.363281 L 33.957031 13.300781 C 34.148438 13.132812 34.328125 12.945312 34.480469 12.738281 C 34.5 12.714844 34.515625 12.6875 34.535156 12.660156 L 34.589844 12.582031 C 34.605469 12.554688 34.621094 12.527344 34.640625 12.5 L 34.6875 12.414062 C 34.71875 12.359375 34.75 12.300781 34.777344 12.242188 C 34.804688 12.183594 34.828125 12.125 34.855469 12.066406 C 34.878906 12.003906 34.902344 11.941406 34.921875 11.882812 L 34.949219 11.789062 C 34.957031 11.757812 34.964844 11.726562 34.972656 11.695312 L 34.992188 11.597656 C 35 11.566406 35.007812 11.535156 35.011719 11.503906 L 35.023438 11.410156 C 35.027344 11.378906 35.03125 11.347656 35.035156 11.316406 C 35.058594 11.0625 35.042969 10.808594 34.996094 10.5625 C 34.945312 10.320312 34.863281 10.082031 34.742188 9.867188 C 34.710938 9.8125 34.675781 9.761719 34.644531 9.710938 L 34.617188 9.671875 C 34.609375 9.660156 34.597656 9.648438 34.589844 9.636719 L 34.53125 9.566406 C 34.523438 9.554688 34.515625 9.539062 34.503906 9.53125 L 34.472656 9.496094 C 34.453125 9.472656 34.429688 9.453125 34.410156 9.429688 C 34.367188 9.386719 34.320312 9.34375 34.273438 9.304688 C 34.222656 9.269531 34.171875 9.230469 34.117188 9.199219 C 34.0625 9.167969 34.003906 9.144531 33.941406 9.121094 C 33.882812 9.101562 33.816406 9.089844 33.753906 9.085938 C 33.6875 9.082031 33.621094 9.085938 33.5625 9.105469 C 33.53125 9.113281 33.507812 9.136719 33.5 9.171875 C 33.496094 9.214844 33.527344 9.257812 33.570312 9.265625 L 33.578125 9.265625 C 33.625 9.273438 33.664062 9.285156 33.703125 9.304688 C 33.746094 9.320312 33.78125 9.347656 33.816406 9.375 C 33.847656 9.402344 33.878906 9.433594 33.910156 9.46875 C 33.9375 9.503906 33.964844 9.539062 33.992188 9.578125 C 34.015625 9.613281 34.039062 9.652344 34.058594 9.695312 C 34.070312 9.71875 34.082031 9.738281 34.089844 9.761719 L 34.105469 9.792969 C 34.113281 9.800781 34.113281 9.8125 34.121094 9.824219 C 34.15625 9.910156 34.183594 10 34.203125 10.089844 C 34.289062 10.449219 34.261719 10.820312 34.15625 11.15625 C 34.148438 11.175781 34.140625 11.195312 34.132812 11.214844 L 34.113281 11.277344 C 34.105469 11.296875 34.09375 11.316406 34.085938 11.335938 L 34.0625 11.394531 C 34.042969 11.433594 34.019531 11.472656 34.003906 11.507812 C 33.980469 11.546875 33.960938 11.582031 33.9375 11.617188 L 33.867188 11.722656 C 33.839844 11.753906 33.8125 11.789062 33.789062 11.820312 L 33.746094 11.871094 C 33.730469 11.886719 33.71875 11.902344 33.703125 11.917969 L 33.660156 11.964844 C 33.644531 11.980469 33.628906 11.996094 33.613281 12.007812 C 33.367188 12.246094 33.066406 12.433594 32.746094 12.5625 C 32.707031 12.582031 32.667969 12.597656 32.625 12.609375 C 32.585938 12.628906 32.542969 12.640625 32.503906 12.652344 L 32.472656 12.664062 L 32.378906 12.6875 C 32.359375 12.695312 32.335938 12.699219 32.316406 12.703125 L 32.253906 12.71875 L 32.191406 12.730469 C 32.171875 12.738281 32.152344 12.738281 32.128906 12.742188 L 32.003906 12.765625 L 31.875 12.777344 C 31.851562 12.777344 31.832031 12.78125 31.808594 12.78125 L 31.746094 12.785156 C 31.421875 12.800781 31.105469 12.796875 30.789062 12.707031 C 30.757812 12.703125 30.730469 12.695312 30.699219 12.6875 C 30.613281 12.667969 30.527344 12.648438 30.441406 12.617188 C 30.355469 12.59375 30.273438 12.5625 30.1875 12.535156 C 30.167969 12.527344 30.148438 12.519531 30.128906 12.511719 L 30.066406 12.484375 L 30.003906 12.460938 C 29.984375 12.453125 29.964844 12.441406 29.945312 12.433594 L 29.824219 12.378906 C 29.785156 12.359375 29.746094 12.339844 29.707031 12.320312 C 29.6875 12.308594 29.667969 12.300781 29.648438 12.289062 L 29.59375 12.257812 L 29.535156 12.222656 L 29.507812 12.207031 C 29.496094 12.203125 29.488281 12.199219 29.480469 12.191406 C 29.445312 12.167969 29.40625 12.148438 29.375 12.125 C 29.339844 12.101562 29.304688 12.078125 29.273438 12.054688 C 29.136719 11.960938 29.015625 11.855469 28.902344 11.742188 C 28.792969 11.628906 28.695312 11.503906 28.605469 11.367188 C 28.519531 11.234375 28.445312 11.085938 28.382812 10.925781 C 28.320312 10.769531 28.273438 10.597656 28.238281 10.417969 C 28.203125 10.242188 28.183594 10.054688 28.175781 9.863281 C 28.171875 9.671875 28.179688 9.476562 28.195312 9.28125 C 28.203125 9.230469 28.207031 9.183594 28.214844 9.132812 L 28.234375 8.992188 L 28.261719 8.851562 C 28.273438 8.808594 28.28125 8.761719 28.292969 8.714844 C 28.394531 8.347656 28.566406 7.996094 28.808594 7.6875 C 29.046875 7.375 29.351562 7.109375 29.691406 6.902344 C 29.757812 6.859375 29.832031 6.820312 29.902344 6.78125 C 29.90625 6.570312 29.890625 6.359375 29.871094 6.148438 C 29.707031 6.226562 29.546875 6.3125 29.386719 6.410156 C 29 6.644531 28.640625 6.933594 28.324219 7.269531 C 28.007812 7.609375 27.738281 8.003906 27.542969 8.433594 L 27.472656 8.597656 L 27.40625 8.765625 L 27.347656 8.933594 L 27.296875 9.097656 C 27.230469 9.320312 27.175781 9.546875 27.136719 9.78125 C 27.097656 10.015625 27.070312 10.257812 27.070312 10.503906 " fill-opacity="1" fill-rule="nonzero"/></g></g></g><g clip-path="url(#e5536e83b1)"><g clip-path="url(#692e568382)"><g clip-path="url(#e567197cab)"><path fill="#000d16" d="M 31.222656 15.886719 C 31.238281 15.996094 31.25 16.101562 31.265625 16.207031 L 31.308594 16.527344 L 31.351562 16.84375 L 31.398438 17.160156 C 31.429688 17.375 31.460938 17.585938 31.492188 17.796875 L 31.683594 19.050781 C 31.765625 18.929688 31.855469 18.8125 31.941406 18.691406 C 32.003906 18.605469 32.070312 18.515625 32.128906 18.425781 C 32.164062 18.367188 32.195312 18.304688 32.230469 18.246094 L 32.128906 17.691406 C 32.089844 17.480469 32.054688 17.273438 32.019531 17.0625 L 31.964844 16.75 L 31.914062 16.433594 L 31.863281 16.121094 C 31.847656 16.015625 31.832031 15.910156 31.816406 15.804688 L 31.726562 15.175781 L 31.636719 14.539062 L 31.617188 14.394531 L 31.613281 14.394531 C 31.605469 14.394531 31.601562 14.394531 31.59375 14.390625 C 31.40625 14.367188 31.21875 14.371094 31.03125 14.378906 C 31.070312 14.671875 31.105469 14.960938 31.140625 15.25 L 31.222656 15.886719 " fill-opacity="1" fill-rule="nonzero"/></g></g></g><g clip-path="url(#b4c8208aa7)"><path fill="#ffd0a6" d="M 70.21875 16.289062 C 70.21875 16.457031 70.183594 16.617188 70.121094 16.773438 C 70.054688 16.929688 69.964844 17.066406 69.84375 17.1875 C 69.726562 17.304688 69.589844 17.398438 69.433594 17.460938 C 69.277344 17.527344 69.117188 17.558594 68.945312 17.558594 C 68.777344 17.558594 68.617188 17.527344 68.460938 17.460938 C 68.304688 17.398438 68.167969 17.304688 68.050781 17.1875 C 67.929688 17.066406 67.839844 16.929688 67.773438 16.773438 C 67.710938 16.617188 67.675781 16.457031 67.675781 16.289062 C 67.675781 16.121094 67.710938 15.957031 67.773438 15.800781 C 67.839844 15.644531 67.929688 15.507812 68.050781 15.390625 C 68.167969 15.269531 68.304688 15.179688 68.460938 15.113281 C 68.617188 15.050781 68.777344 15.019531 68.945312 15.019531 C 69.117188 15.019531 69.277344 15.050781 69.433594 15.113281 C 69.589844 15.179688 69.726562 15.269531 69.84375 15.390625 C 69.964844 15.507812 70.054688 15.644531 70.121094 15.800781 C 70.183594 15.957031 70.21875 16.121094 70.21875 16.289062 Z M 70.21875 16.289062 " fill-opacity="1" fill-rule="nonzero"/></g><g clip-path="url(#49780c3bb0)"><path fill="#fa9397" d="M 81.105469 16.289062 C 81.105469 16.457031 81.070312 16.617188 81.007812 16.773438 C 80.941406 16.929688 80.851562 17.066406 80.730469 17.1875 C 80.613281 17.304688 80.476562 17.398438 80.320312 17.460938 C 80.164062 17.527344 80.003906 17.558594 79.835938 17.558594 C 79.664062 17.558594 79.503906 17.527344 79.347656 17.460938 C 79.191406 17.398438 79.054688 17.304688 78.9375 17.1875 C 78.816406 17.066406 78.726562 16.929688 78.660156 16.773438 C 78.597656 16.617188 78.5625 16.457031 78.5625 16.289062 C 78.5625 16.121094 78.597656 15.957031 78.660156 15.800781 C 78.726562 15.644531 78.816406 15.507812 78.9375 15.390625 C 79.054688 15.269531 79.191406 15.179688 79.347656 15.113281 C 79.503906 15.050781 79.664062 15.019531 79.835938 15.019531 C 80.003906 15.019531 80.164062 15.050781 80.320312 15.113281 C 80.476562 15.179688 80.613281 15.269531 80.730469 15.390625 C 80.851562 15.507812 80.941406 15.644531 81.007812 15.800781 C 81.070312 15.957031 81.105469 16.121094 81.105469 16.289062 Z M 81.105469 16.289062 " fill-opacity="1" fill-rule="nonzero"/></g><g clip-path="url(#c551413c54)"><path fill="#e4d1c1" d="M 62.953125 16.289062 C 62.953125 16.457031 62.921875 16.617188 62.859375 16.773438 C 62.792969 16.929688 62.703125 17.066406 62.582031 17.1875 C 62.464844 17.304688 62.324219 17.398438 62.171875 17.460938 C 62.015625 17.527344 61.851562 17.558594 61.683594 17.558594 C 61.515625 17.558594 61.355469 17.527344 61.199219 17.460938 C 61.042969 17.398438 60.90625 17.304688 60.785156 17.1875 C 60.667969 17.066406 60.574219 16.929688 60.511719 16.773438 C 60.445312 16.617188 60.414062 16.457031 60.414062 16.289062 C 60.414062 16.121094 60.445312 15.957031 60.511719 15.800781 C 60.574219 15.644531 60.667969 15.507812 60.785156 15.390625 C 60.90625 15.269531 61.042969 15.179688 61.199219 15.113281 C 61.355469 15.050781 61.515625 15.019531 61.683594 15.019531 C 61.851562 15.019531 62.015625 15.050781 62.171875 15.113281 C 62.324219 15.179688 62.464844 15.269531 62.582031 15.390625 C 62.703125 15.507812 62.792969 15.644531 62.859375 15.800781 C 62.921875 15.957031 62.953125 16.121094 62.953125 16.289062 Z M 62.953125 16.289062 " fill-opacity="1" fill-rule="nonzero"/></g><g clip-path="url(#0504a99ee2)"><path fill="#95c4be" d="M 52.425781 16.289062 C 52.425781 16.457031 52.394531 16.617188 52.328125 16.773438 C 52.265625 16.929688 52.171875 17.066406 52.054688 17.1875 C 51.933594 17.304688 51.796875 17.398438 51.640625 17.460938 C 51.484375 17.527344 51.324219 17.558594 51.15625 17.558594 C 50.988281 17.558594 50.824219 17.527344 50.667969 17.460938 C 50.515625 17.398438 50.375 17.304688 50.257812 17.1875 C 50.136719 17.066406 50.046875 16.929688 49.980469 16.773438 C 49.917969 16.617188 49.886719 16.457031 49.886719 16.289062 C 49.886719 16.121094 49.917969 15.957031 49.980469 15.800781 C 50.046875 15.644531 50.136719 15.507812 50.257812 15.390625 C 50.375 15.269531 50.515625 15.179688 50.667969 15.113281 C 50.824219 15.050781 50.988281 15.019531 51.15625 15.019531 C 51.324219 15.019531 51.484375 15.050781 51.640625 15.113281 C 51.796875 15.179688 51.933594 15.269531 52.054688 15.390625 C 52.171875 15.507812 52.265625 15.644531 52.328125 15.800781 C 52.394531 15.957031 52.425781 16.121094 52.425781 16.289062 Z M 52.425781 16.289062 " fill-opacity="1" fill-rule="nonzero"/></g></svg>